<svg width="24" height="24" viewBox="0 0 24 24" fill="none" xmlns="http://www.w3.org/2000/svg">
<path d="M16.505 2.25H7.496C4.59768 2.25 2.25 4.59889 2.25 7.496V16.504C2.25 19.4023 4.59889 21.75 7.496 21.75H16.504C19.4022 21.75 21.75 19.4012 21.75 16.505V7.496C21.75 4.59779 19.4012 2.25 16.505 2.25Z" stroke="#AB78FF" stroke-width="1.5" stroke-linecap="round" stroke-linejoin="round"/>
<path d="M16.4995 7.1625C16.3135 7.1635 16.1625 7.3145 16.1625 7.5005C16.1625 7.6865 16.3145 7.8375 16.5005 7.8375C16.6865 7.8375 16.8375 7.6865 16.8375 7.5005C16.8385 7.3135 16.6865 7.1625 16.4995 7.1625" stroke="#AB78FF" stroke-width="1.5" stroke-linecap="round" stroke-linejoin="round"/>
<path d="M14.1213 9.87868C15.2929 11.0503 15.2929 12.9497 14.1213 14.1213C12.9497 15.2929 11.0503 15.2929 9.87868 14.1213C8.70711 12.9497 8.70711 11.0503 9.87868 9.87868C11.0503 8.70711 12.9497 8.70711 14.1213 9.87868" stroke="#AB78FF" stroke-width="1.5" stroke-linecap="round" stroke-linejoin="round"/>
</svg>
