<svg width="24" height="24" viewBox="0 0 24 24" fill="none" xmlns="http://www.w3.org/2000/svg">
<path d="M16.505 2.25H7.496C4.59768 2.25 2.25 4.59889 2.25 7.496V16.504C2.25 19.4023 4.59889 21.75 7.496 21.75H16.504C19.4022 21.75 21.75 19.4012 21.75 16.505V7.496C21.75 4.59779 19.4012 2.25 16.505 2.25Z" stroke="#636363" stroke-width="1.5" stroke-linecap="round" stroke-linejoin="round"/>
<path d="M16.949 6.71304C16.763 6.71404 16.612 6.86504 16.612 7.05104C16.612 7.23704 16.764 7.38804 16.95 7.38804C17.136 7.38804 17.287 7.23704 17.287 7.05104C17.288 6.86404 17.136 6.71304 16.949 6.71304" stroke="#636363" stroke-width="1.5" stroke-linecap="round" stroke-linejoin="round"/>
<path d="M14.5457 9.45432C15.9516 10.8602 15.9516 13.1396 14.5457 14.5455C13.1398 15.9514 10.8605 15.9514 9.45456 14.5455C8.04867 13.1396 8.04867 10.8602 9.45456 9.45432C10.8605 8.04843 13.1398 8.04843 14.5457 9.45432" stroke="#636363" stroke-width="1.5" stroke-linecap="round" stroke-linejoin="round"/>
</svg>
